<?xml version="1.0" standalone="no"?>
<!DOCTYPE svg PUBLIC "-//W3C//DTD SVG 1.1//EN" "http://www.w3.org/Graphics/SVG/1.1/DTD/svg11.dtd" >
<svg xmlns="http://www.w3.org/2000/svg" width="100%" height="100%">
<metadata>
Created by FontXChange 20100429 at Tue Oct  1 16:48:18 2013
 By Hugh Francis
Copyright URW Software, Copyright 1994 by URW
</metadata>
<defs>
<font id="NeuzeitGroT-Bold" horiz-adv-x="500" >
  <font-face 
    font-family="Neuzeit Grotesk T"
    font-weight="700"
    font-stretch="normal"
    units-per-em="1000"
    panose-1="2 0 8 3 0 0 0 0 0 0"
    ascent="800"
    descent="-200"
    x-height="463"
    cap-height="667"
    bbox="-177 -229 973 889"
    underline-thickness="83"
    underline-position="-101"
    stemh="113"
    stemv="128"
    unicode-range="U+0020-FB02"
  />
    <missing-glyph />
    <glyph glyph-name="Adieresis" unicode="&#xc4;" horiz-adv-x="632" 
d="M443 115h-256l-40 -115h-145l230 667h171l228 -667h-150zM407 227l-92 276l-93 -276h185zM210 870c38 0 68 -31 68 -70c0 -37 -31 -68 -69 -68s-69 31 -69 69s31 69 70 69zM423 870c38 0 68 -31 68 -70c0 -37 -31 -68 -69 -68s-69 31 -69 69s31 69 70 69z" />
    <glyph glyph-name="Aacute" unicode="&#xc1;" horiz-adv-x="632" 
d="M443 115h-256l-40 -115h-145l230 667h171l228 -667h-150zM407 227l-92 276l-93 -276h185zM345 859h131l-138 -133h-87z" />
    <glyph glyph-name="Agrave" unicode="&#xc0;" horiz-adv-x="632" 
d="M443 115h-256l-40 -115h-145l230 667h171l228 -667h-150zM407 227l-92 276l-93 -276h185zM288 859l94 -133h-87l-138 133h131z" />
    <glyph glyph-name="Acircumflex" unicode="&#xc2;" horiz-adv-x="632" 
d="M443 115h-256l-40 -115h-145l230 667h171l228 -667h-150zM407 227l-92 276l-93 -276h185zM317 794l-79 -68h-89l113 134h115l106 -134h-88z" />
    <glyph glyph-name="Atilde" unicode="&#xc3;" horiz-adv-x="632" 
d="M443 115h-256l-40 -115h-145l230 667h171l228 -667h-150zM407 227l-92 276l-93 -276h185zM413 852l84 -7c-10 -37 -17 -53 -30 -71c-21 -27 -48 -42 -77 -42c-19 0 -28 3 -73 19c-29 11 -44 16 -53 16c-17 0 -28 -12 -32 -35l-83 5c8 37 15 54 28 72c21 27 49 42 78 42
c19 0 34 -5 100 -32c8 -3 15 -5 21 -5c17 0 29 12 37 38z" />
    <glyph glyph-name="Aring" unicode="&#xc5;" horiz-adv-x="632" 
d="M443 115h-256l-40 -115h-145l230 667h171l228 -667h-150zM407 227l-92 276l-93 -276h185zM318 889c52 0 92 -40 92 -93c0 -49 -42 -89 -93 -89c-52 0 -93 40 -93 91s41 91 94 91zM317 843c-26 0 -46 -20 -46 -45s21 -45 46 -45s46 20 46 44c0 26 -20 46 -46 46z" />
    <glyph glyph-name="Edieresis" unicode="&#xcb;" horiz-adv-x="463" 
d="M184 555v-164h234v-112h-234v-167h234v-112h-371v667h371v-112h-234zM126 870c38 0 68 -31 68 -70c0 -37 -31 -68 -69 -68s-69 31 -69 69s31 69 70 69zM339 870c38 0 68 -31 68 -70c0 -37 -31 -68 -69 -68s-69 31 -69 69s31 69 70 69z" />
    <glyph glyph-name="Eacute" unicode="&#xc9;" horiz-adv-x="463" 
d="M184 555v-164h234v-112h-234v-167h234v-112h-371v667h371v-112h-234zM260 859h131l-138 -133h-87z" />
    <glyph glyph-name="Egrave" unicode="&#xc8;" horiz-adv-x="463" 
d="M184 555v-164h234v-112h-234v-167h234v-112h-371v667h371v-112h-234zM203 859l94 -133h-87l-138 133h131z" />
    <glyph glyph-name="Ecircumflex" unicode="&#xca;" horiz-adv-x="463" 
d="M184 555v-164h234v-112h-234v-167h234v-112h-371v667h371v-112h-234zM233 794l-79 -68h-89l113 134h115l106 -134h-88z" />
    <glyph glyph-name="Idieresis" unicode="&#xcf;" horiz-adv-x="276" 
d="M207 667v-667h-137v667h137zM50 870c38 0 68 -31 68 -70c0 -37 -31 -68 -69 -68s-69 31 -69 69s31 69 70 69zM226 870c38 0 68 -31 68 -70c0 -37 -31 -68 -69 -68s-69 31 -69 69s31 69 70 69z" />
    <glyph glyph-name="Iacute" unicode="&#xcd;" horiz-adv-x="276" 
d="M207 667v-667h-137v667h137zM166 859h131l-138 -133h-87z" />
    <glyph glyph-name="Igrave" unicode="&#xcc;" horiz-adv-x="276" 
d="M207 667v-667h-137v667h137zM110 859l94 -133h-87l-138 133h131z" />
    <glyph glyph-name="Icircumflex" unicode="&#xce;" horiz-adv-x="276" 
d="M207 667v-667h-137v667h137zM139 794l-79 -68h-89l113 134h115l106 -134h-88z" />
    <glyph glyph-name="Ntilde" unicode="&#xd1;" horiz-adv-x="690" 
d="M207 422v-422h-137v667h135l279 -416v416h137v-667h-134zM442 852l84 -7c-10 -37 -17 -53 -30 -71c-21 -27 -48 -42 -77 -42c-19 0 -28 3 -73 19c-29 11 -44 16 -53 16c-17 0 -28 -12 -32 -35l-83 5c8 37 15 54 28 72c21 27 49 42 78 42c19 0 34 -5 100 -32
c8 -3 15 -5 21 -5c17 0 29 12 37 38z" />
    <glyph glyph-name="Odieresis" unicode="&#xd6;" horiz-adv-x="764" 
d="M387 680c103 0 197 -44 262 -122c52 -63 77 -136 77 -228c0 -191 -152 -343 -341 -343c-195 0 -348 151 -348 343c0 198 152 350 350 350zM383 553c-118 0 -206 -94 -206 -221c0 -124 89 -219 205 -219c115 0 205 95 205 216c0 129 -86 224 -204 224zM275 870
c38 0 68 -31 68 -70c0 -37 -31 -68 -69 -68s-69 31 -69 69s31 69 70 69zM488 870c38 0 68 -31 68 -70c0 -37 -31 -68 -69 -68s-69 31 -69 69s31 69 70 69z" />
    <glyph glyph-name="Oacute" unicode="&#xd3;" horiz-adv-x="764" 
d="M387 680c103 0 197 -44 262 -122c52 -63 77 -136 77 -228c0 -191 -152 -343 -341 -343c-195 0 -348 151 -348 343c0 198 152 350 350 350zM383 553c-118 0 -206 -94 -206 -221c0 -124 89 -219 205 -219c115 0 205 95 205 216c0 129 -86 224 -204 224zM410 859h131
l-138 -133h-87z" />
    <glyph glyph-name="Ograve" unicode="&#xd2;" horiz-adv-x="764" 
d="M387 680c103 0 197 -44 262 -122c52 -63 77 -136 77 -228c0 -191 -152 -343 -341 -343c-195 0 -348 151 -348 343c0 198 152 350 350 350zM383 553c-118 0 -206 -94 -206 -221c0 -124 89 -219 205 -219c115 0 205 95 205 216c0 129 -86 224 -204 224zM353 859l94 -133
h-87l-138 133h131z" />
    <glyph glyph-name="Ocircumflex" unicode="&#xd4;" horiz-adv-x="764" 
d="M387 680c103 0 197 -44 262 -122c52 -63 77 -136 77 -228c0 -191 -152 -343 -341 -343c-195 0 -348 151 -348 343c0 198 152 350 350 350zM383 553c-118 0 -206 -94 -206 -221c0 -124 89 -219 205 -219c115 0 205 95 205 216c0 129 -86 224 -204 224zM382 794l-79 -68
h-89l113 134h115l106 -134h-88z" />
    <glyph glyph-name="Otilde" unicode="&#xd5;" horiz-adv-x="764" 
d="M387 680c103 0 197 -44 262 -122c52 -63 77 -136 77 -228c0 -191 -152 -343 -341 -343c-195 0 -348 151 -348 343c0 198 152 350 350 350zM383 553c-118 0 -206 -94 -206 -221c0 -124 89 -219 205 -219c115 0 205 95 205 216c0 129 -86 224 -204 224zM478 852l84 -7
c-10 -37 -17 -53 -30 -71c-21 -27 -48 -42 -77 -42c-19 0 -28 3 -73 19c-29 11 -44 16 -53 16c-17 0 -28 -12 -32 -35l-83 5c8 37 15 54 28 72c21 27 49 42 78 42c19 0 34 -5 100 -32c8 -3 15 -5 21 -5c17 0 29 12 37 38z" />
    <glyph glyph-name="Scaron" unicode="&#x160;" horiz-adv-x="521" 
d="M30 195h133v-9c0 -45 39 -78 91 -78c50 0 88 31 88 71c0 21 -10 40 -27 53s-28 18 -81 37c-146 52 -198 107 -198 209c0 121 89 202 220 202c130 0 214 -76 225 -204h-138c-5 56 -33 83 -87 83c-49 0 -82 -28 -82 -70c0 -27 14 -48 41 -63c18 -10 29 -15 78 -33
c73 -27 110 -46 139 -74c35 -33 53 -78 53 -129c0 -122 -92 -203 -230 -203c-140 0 -226 80 -225 208zM258 792l79 68h89l-113 -134h-115l-106 134h89z" />
    <glyph glyph-name="Udieresis" unicode="&#xdc;" horiz-adv-x="639" 
d="M196 667v-391c0 -62 8 -96 30 -122c20 -25 56 -41 93 -41c39 0 77 18 97 46c20 27 26 56 26 118v390h138v-386c0 -98 -21 -166 -66 -216s-115 -78 -193 -78c-81 0 -155 30 -202 83c-43 48 -60 108 -60 211v386h137zM213 870c38 0 68 -31 68 -70c0 -37 -31 -68 -69 -68
s-69 31 -69 69s31 69 70 69zM426 870c38 0 68 -31 68 -70c0 -37 -31 -68 -69 -68s-69 31 -69 69s31 69 70 69z" />
    <glyph glyph-name="Uacute" unicode="&#xda;" horiz-adv-x="639" 
d="M196 667v-391c0 -62 8 -96 30 -122c20 -25 56 -41 93 -41c39 0 77 18 97 46c20 27 26 56 26 118v390h138v-386c0 -98 -21 -166 -66 -216s-115 -78 -193 -78c-81 0 -155 30 -202 83c-43 48 -60 108 -60 211v386h137zM347 859h131l-138 -133h-87z" />
    <glyph glyph-name="Ugrave" unicode="&#xd9;" horiz-adv-x="639" 
d="M196 667v-391c0 -62 8 -96 30 -122c20 -25 56 -41 93 -41c39 0 77 18 97 46c20 27 26 56 26 118v390h138v-386c0 -98 -21 -166 -66 -216s-115 -78 -193 -78c-81 0 -155 30 -202 83c-43 48 -60 108 -60 211v386h137zM291 859l94 -133h-87l-138 133h131z" />
    <glyph glyph-name="Ucircumflex" unicode="&#xdb;" horiz-adv-x="639" 
d="M196 667v-391c0 -62 8 -96 30 -122c20 -25 56 -41 93 -41c39 0 77 18 97 46c20 27 26 56 26 118v390h138v-386c0 -98 -21 -166 -66 -216s-115 -78 -193 -78c-81 0 -155 30 -202 83c-43 48 -60 108 -60 211v386h137zM320 794l-79 -68h-89l113 134h115l106 -134h-88z" />
    <glyph glyph-name="Yacute" unicode="&#xdd;" horiz-adv-x="557" 
d="M349 294v-294h-137v294l-223 373h163l129 -231l127 231h160zM307 859h131l-138 -133h-87z" />
    <glyph glyph-name="Zcaron" unicode="&#x17d;" horiz-adv-x="551" 
d="M228 112h281v-112h-496l312 555h-277v112h491zM274 792l79 68h89l-113 -134h-115l-106 134h89z" />
    <glyph glyph-name="Ydieresis" unicode="&#x178;" horiz-adv-x="557" 
d="M349 294v-294h-137v294l-223 373h163l129 -231l127 231h160zM172 870c38 0 68 -31 68 -70c0 -37 -31 -68 -69 -68s-69 31 -69 69s31 69 70 69zM385 870c38 0 68 -31 68 -70c0 -37 -31 -68 -69 -68s-69 31 -69 69s31 69 70 69z" />
    <glyph glyph-name="adieresis" unicode="&#xe4;" horiz-adv-x="607" 
d="M418 404v59h127v-463h-127v64c-43 -55 -93 -80 -161 -80c-130 0 -223 101 -223 242c0 146 98 253 233 253c63 0 106 -22 151 -75zM293 372c-72 0 -123 -59 -123 -144c0 -81 53 -142 122 -142c71 0 128 66 128 146c0 82 -52 140 -127 140zM214 673c38 0 66 -29 66 -68
c0 -37 -30 -66 -67 -66c-38 0 -67 29 -67 67s29 67 68 67zM427 673c37 0 66 -29 66 -68c0 -37 -30 -66 -67 -66c-38 0 -67 29 -67 67s29 67 68 67z" />
    <glyph glyph-name="aacute" unicode="&#xe1;" horiz-adv-x="607" 
d="M418 404v59h127v-463h-127v64c-43 -55 -93 -80 -161 -80c-130 0 -223 101 -223 242c0 146 98 253 233 253c63 0 106 -22 151 -75zM293 372c-72 0 -123 -59 -123 -144c0 -81 53 -142 122 -142c71 0 128 66 128 146c0 82 -52 140 -127 140zM328 672h128l-133 -139h-78z" />
    <glyph glyph-name="agrave" unicode="&#xe0;" horiz-adv-x="607" 
d="M418 404v59h127v-463h-127v64c-43 -55 -93 -80 -161 -80c-130 0 -223 101 -223 242c0 146 98 253 233 253c63 0 106 -22 151 -75zM293 372c-72 0 -123 -59 -123 -144c0 -81 53 -142 122 -142c71 0 128 66 128 146c0 82 -52 140 -127 140zM280 672l83 -139h-78l-133 139
h128z" />
    <glyph glyph-name="acircumflex" unicode="&#xe2;" horiz-adv-x="607" 
d="M418 404v59h127v-463h-127v64c-43 -55 -93 -80 -161 -80c-130 0 -223 101 -223 242c0 146 98 253 233 253c63 0 106 -22 151 -75zM293 372c-72 0 -123 -59 -123 -144c0 -81 53 -142 122 -142c71 0 128 66 128 146c0 82 -52 140 -127 140zM305 607l-70 -74h-89l102 139
h118l96 -139h-89z" />
    <glyph glyph-name="atilde" unicode="&#xe3;" horiz-adv-x="607" 
d="M418 404v59h127v-463h-127v64c-43 -55 -93 -80 -161 -80c-130 0 -223 101 -223 242c0 146 98 253 233 253c63 0 106 -22 151 -75zM293 372c-72 0 -123 -59 -123 -144c0 -81 53 -142 122 -142c71 0 128 66 128 146c0 82 -52 140 -127 140zM393 658l82 -6
c-18 -74 -53 -112 -104 -112c-21 0 -44 8 -89 29c-13 7 -17 8 -23 8c-14 0 -23 -11 -30 -36l-82 7c17 75 51 111 104 111c23 0 46 -8 91 -29c10 -5 16 -7 23 -7c14 0 24 12 28 35z" />
    <glyph glyph-name="aring" unicode="&#xe5;" horiz-adv-x="607" 
d="M418 404v59h127v-463h-127v64c-43 -55 -93 -80 -161 -80c-130 0 -223 101 -223 242c0 146 98 253 233 253c63 0 106 -22 151 -75zM293 372c-72 0 -123 -59 -123 -144c0 -81 53 -142 122 -142c71 0 128 66 128 146c0 82 -52 140 -127 140zM299 697c52 0 92 -40 92 -93
c0 -49 -42 -89 -93 -89c-52 0 -93 40 -93 91s41 91 94 91zM298 651c-26 0 -46 -20 -46 -45s21 -45 46 -45s46 20 46 44c0 26 -20 46 -46 46z" />
    <glyph glyph-name="edieresis" unicode="&#xeb;" horiz-adv-x="556" 
d="M527 201h-362c11 -64 58 -104 121 -104c47 0 87 23 107 60l117 -32c-46 -90 -127 -141 -225 -141c-147 0 -252 104 -252 248c0 145 101 247 244 247c148 0 251 -104 251 -253c0 -3 0 -16 -1 -25zM165 274h232c-11 61 -55 98 -118 98c-61 0 -102 -35 -114 -98zM172 673
c38 0 66 -29 66 -68c0 -37 -30 -66 -67 -66c-38 0 -67 29 -67 67s29 67 68 67zM385 673c37 0 66 -29 66 -68c0 -37 -30 -66 -67 -66c-38 0 -67 29 -67 67s29 67 68 67z" />
    <glyph glyph-name="eacute" unicode="&#xe9;" horiz-adv-x="556" 
d="M527 201h-362c11 -64 58 -104 121 -104c47 0 87 23 107 60l117 -32c-46 -90 -127 -141 -225 -141c-147 0 -252 104 -252 248c0 145 101 247 244 247c148 0 251 -104 251 -253c0 -3 0 -16 -1 -25zM165 274h232c-11 61 -55 98 -118 98c-61 0 -102 -35 -114 -98zM303 672
h128l-133 -139h-78z" />
    <glyph glyph-name="egrave" unicode="&#xe8;" horiz-adv-x="556" 
d="M527 201h-362c11 -64 58 -104 121 -104c47 0 87 23 107 60l117 -32c-46 -90 -127 -141 -225 -141c-147 0 -252 104 -252 248c0 145 101 247 244 247c148 0 251 -104 251 -253c0 -3 0 -16 -1 -25zM165 274h232c-11 61 -55 98 -118 98c-61 0 -102 -35 -114 -98zM254 672
l83 -139h-78l-133 139h128z" />
    <glyph glyph-name="ecircumflex" unicode="&#xea;" horiz-adv-x="556" 
d="M527 201h-362c11 -64 58 -104 121 -104c47 0 87 23 107 60l117 -32c-46 -90 -127 -141 -225 -141c-147 0 -252 104 -252 248c0 145 101 247 244 247c148 0 251 -104 251 -253c0 -3 0 -16 -1 -25zM165 274h232c-11 61 -55 98 -118 98c-61 0 -102 -35 -114 -98zM279 607
l-70 -74h-89l102 139h118l96 -139h-89z" />
    <glyph glyph-name="idieresis" unicode="&#xef;" horiz-adv-x="253" 
d="M190 463v-463h-127v463h127zM39 673c38 0 66 -29 66 -68c0 -37 -30 -66 -67 -66c-38 0 -67 29 -67 67s29 67 68 67zM214 673c37 0 66 -29 66 -68c0 -37 -30 -66 -67 -66c-38 0 -67 29 -67 67s29 67 68 67z" />
    <glyph glyph-name="iacute" unicode="&#xed;" horiz-adv-x="253" 
d="M190 463v-463h-127v463h127zM151 672h128l-133 -139h-78z" />
    <glyph glyph-name="igrave" unicode="&#xec;" horiz-adv-x="253" 
d="M190 463v-463h-127v463h127zM103 672l83 -139h-78l-133 139h128z" />
    <glyph glyph-name="icircumflex" unicode="&#xee;" horiz-adv-x="253" 
d="M190 463v-463h-127v463h127zM128 607l-70 -74h-89l102 139h118l96 -139h-89z" />
    <glyph glyph-name="ntilde" unicode="&#xf1;" horiz-adv-x="531" 
d="M63 463h127v-57c34 53 68 73 126 73c44 0 86 -16 114 -43c30 -30 41 -67 41 -143v-293h-127v287c0 26 -3 41 -11 54c-12 19 -36 31 -61 31c-49 0 -82 -37 -82 -91v-281h-127v463zM354 658l82 -6c-18 -74 -53 -112 -104 -112c-21 0 -44 8 -89 29c-13 7 -17 8 -23 8
c-14 0 -23 -11 -30 -36l-82 7c17 75 51 111 104 111c23 0 46 -8 91 -29c10 -5 16 -7 23 -7c14 0 24 12 28 35z" />
    <glyph glyph-name="odieresis" unicode="&#xf6;" horiz-adv-x="568" 
d="M286 479c146 0 251 -106 251 -252c0 -136 -111 -243 -253 -243c-146 0 -251 103 -251 247c0 147 103 248 253 248zM286 365c-75 0 -125 -53 -125 -134c0 -80 50 -134 124 -134c73 0 124 55 124 132c0 84 -47 136 -123 136zM178 673c38 0 66 -29 66 -68
c0 -37 -30 -66 -67 -66c-38 0 -67 29 -67 67s29 67 68 67zM391 673c37 0 66 -29 66 -68c0 -37 -30 -66 -67 -66c-38 0 -67 29 -67 67s29 67 68 67z" />
    <glyph glyph-name="oacute" unicode="&#xf3;" horiz-adv-x="568" 
d="M286 479c146 0 251 -106 251 -252c0 -136 -111 -243 -253 -243c-146 0 -251 103 -251 247c0 147 103 248 253 248zM286 365c-75 0 -125 -53 -125 -134c0 -80 50 -134 124 -134c73 0 124 55 124 132c0 84 -47 136 -123 136zM309 672h128l-133 -139h-78z" />
    <glyph glyph-name="ograve" unicode="&#xf2;" horiz-adv-x="568" 
d="M286 479c146 0 251 -106 251 -252c0 -136 -111 -243 -253 -243c-146 0 -251 103 -251 247c0 147 103 248 253 248zM286 365c-75 0 -125 -53 -125 -134c0 -80 50 -134 124 -134c73 0 124 55 124 132c0 84 -47 136 -123 136zM261 672l83 -139h-78l-133 139h128z" />
    <glyph glyph-name="ocircumflex" unicode="&#xf4;" horiz-adv-x="568" 
d="M286 479c146 0 251 -106 251 -252c0 -136 -111 -243 -253 -243c-146 0 -251 103 -251 247c0 147 103 248 253 248zM286 365c-75 0 -125 -53 -125 -134c0 -80 50 -134 124 -134c73 0 124 55 124 132c0 84 -47 136 -123 136zM286 607l-70 -74h-89l102 139h118l96 -139h-89z
" />
    <glyph glyph-name="otilde" unicode="&#xf5;" horiz-adv-x="568" 
d="M286 479c146 0 251 -106 251 -252c0 -136 -111 -243 -253 -243c-146 0 -251 103 -251 247c0 147 103 248 253 248zM286 365c-75 0 -125 -53 -125 -134c0 -80 50 -134 124 -134c73 0 124 55 124 132c0 84 -47 136 -123 136zM373 658l82 -6c-18 -74 -53 -112 -104 -112
c-21 0 -44 8 -89 29c-13 7 -17 8 -23 8c-14 0 -23 -11 -30 -36l-82 7c17 75 51 111 104 111c23 0 46 -8 91 -29c10 -5 16 -7 23 -7c14 0 24 12 28 35z" />
    <glyph glyph-name="scaron" unicode="&#x161;" horiz-adv-x="419" 
d="M381 329h-120v8c0 28 -25 48 -59 48c-30 0 -51 -17 -51 -41s16 -39 54 -50c71 -21 109 -37 132 -54c32 -24 51 -63 51 -106c0 -90 -72 -150 -180 -150c-110 0 -177 56 -182 152h122c6 -40 24 -58 61 -58c30 0 51 18 51 44c0 28 -18 41 -86 62c-100 30 -145 75 -145 148
c0 88 71 147 179 147c106 0 170 -56 173 -150zM208 598l70 74h89l-102 -139h-118l-96 139h89z" />
    <glyph glyph-name="udieresis" unicode="&#xfc;" horiz-adv-x="514" 
d="M333 463h127v-293c0 -68 -14 -106 -52 -138c-37 -31 -89 -48 -150 -48c-64 0 -119 18 -155 51c-33 30 -49 74 -49 135v293h127v-285c0 -52 31 -87 77 -87c47 0 75 30 75 79v293zM151 673c38 0 66 -29 66 -68c0 -37 -30 -66 -67 -66c-38 0 -67 29 -67 67s29 67 68 67z
M364 673c37 0 66 -29 66 -68c0 -37 -30 -66 -67 -66c-38 0 -67 29 -67 67s29 67 68 67z" />
    <glyph glyph-name="uacute" unicode="&#xfa;" horiz-adv-x="514" 
d="M333 463h127v-293c0 -68 -14 -106 -52 -138c-37 -31 -89 -48 -150 -48c-64 0 -119 18 -155 51c-33 30 -49 74 -49 135v293h127v-285c0 -52 31 -87 77 -87c47 0 75 30 75 79v293zM281 672h128l-133 -139h-78z" />
    <glyph glyph-name="ugrave" unicode="&#xf9;" horiz-adv-x="514" 
d="M333 463h127v-293c0 -68 -14 -106 -52 -138c-37 -31 -89 -48 -150 -48c-64 0 -119 18 -155 51c-33 30 -49 74 -49 135v293h127v-285c0 -52 31 -87 77 -87c47 0 75 30 75 79v293zM233 672l83 -139h-78l-133 139h128z" />
    <glyph glyph-name="ucircumflex" unicode="&#xfb;" horiz-adv-x="514" 
d="M333 463h127v-293c0 -68 -14 -106 -52 -138c-37 -31 -89 -48 -150 -48c-64 0 -119 18 -155 51c-33 30 -49 74 -49 135v293h127v-285c0 -52 31 -87 77 -87c47 0 75 30 75 79v293zM258 607l-70 -74h-89l102 139h118l96 -139h-89z" />
    <glyph glyph-name="yacute" unicode="&#xfd;" horiz-adv-x="469" 
d="M227 188l108 275h135l-261 -674h-136l87 222l-162 452h135zM258 672h128l-133 -139h-78z" />
    <glyph glyph-name="zcaron" unicode="&#x17e;" horiz-adv-x="421" 
d="M215 107h179v-107h-379l195 356h-177v107h375zM209 598l70 74h89l-102 -139h-118l-96 139h89z" />
    <glyph glyph-name="ydieresis" unicode="&#xff;" horiz-adv-x="469" 
d="M227 188l108 275h135l-261 -674h-136l87 222l-162 452h135zM128 673c38 0 66 -29 66 -68c0 -37 -30 -66 -67 -66c-38 0 -67 29 -67 67s29 67 68 67zM341 673c37 0 66 -29 66 -68c0 -37 -30 -66 -67 -66c-38 0 -67 29 -67 67s29 67 68 67z" />
    <glyph glyph-name="A" unicode="A" horiz-adv-x="632" 
d="M443 115h-256l-40 -115h-145l230 667h171l228 -667h-150zM407 227l-92 276l-93 -276h185z" />
    <glyph glyph-name="B" unicode="B" horiz-adv-x="572" 
d="M70 667h215c86 0 140 -13 175 -43c38 -31 59 -80 59 -136c0 -46 -14 -85 -42 -114c-19 -19 -34 -28 -70 -40c40 -9 58 -17 79 -36c31 -28 48 -69 48 -120c0 -62 -26 -117 -69 -146c-35 -23 -76 -32 -149 -32h-246v667zM207 563v-179h55c81 0 119 29 119 91
c0 34 -16 63 -40 75c-19 9 -47 13 -86 13h-48zM207 282v-181h67c87 0 122 25 122 89c0 36 -13 61 -38 76c-21 12 -42 16 -92 16h-59z" />
    <glyph glyph-name="C" unicode="C" horiz-adv-x="635" 
d="M531 182l83 -94c-77 -72 -149 -101 -248 -101c-103 0 -187 37 -247 109c-52 62 -82 149 -82 236c0 203 138 348 331 348c103 0 173 -29 252 -106l-89 -90c-54 49 -100 69 -156 69c-117 0 -199 -90 -199 -218s86 -221 206 -221c61 0 108 21 149 68z" />
    <glyph glyph-name="D" unicode="D" horiz-adv-x="641" 
d="M70 0v667h189c108 0 181 -22 240 -74c68 -60 105 -147 105 -252c0 -107 -38 -203 -106 -264c-55 -50 -135 -77 -231 -77h-197zM207 556v-443h26c73 0 118 13 157 46c48 41 75 104 75 178c0 133 -82 219 -208 219h-50z" />
    <glyph glyph-name="E" unicode="E" horiz-adv-x="463" 
d="M184 555v-164h234v-112h-234v-167h234v-112h-371v667h371v-112h-234z" />
    <glyph glyph-name="F" unicode="F" horiz-adv-x="467" 
d="M207 555v-164h234v-112h-234v-279h-137v667h371v-112h-234z" />
    <glyph glyph-name="G" unicode="G" horiz-adv-x="752" 
d="M389 374h334v-36c0 -103 -30 -180 -97 -248c-67 -67 -152 -103 -246 -103c-196 0 -343 148 -343 345c0 199 146 348 342 348c108 0 205 -46 270 -128l-103 -81c-49 58 -98 83 -164 83c-117 0 -206 -96 -206 -222c0 -124 92 -221 209 -221c57 0 114 25 149 67
c20 23 30 44 41 84h-186v112z" />
    <glyph glyph-name="H" unicode="H" horiz-adv-x="667" 
d="M207 273v-273h-137v667h137v-282h253v282h137v-667h-137v273h-253z" />
    <glyph glyph-name="I" unicode="I" horiz-adv-x="276" 
d="M207 667v-667h-137v667h137z" />
    <glyph glyph-name="J" unicode="J" horiz-adv-x="384" 
d="M325 667v-430c0 -123 -35 -188 -120 -224c-39 -17 -85 -23 -174 -23v121c14 -1 19 -1 28 -1c41 0 74 10 95 28c26 23 34 53 34 132v285h-157v112h294z" />
    <glyph glyph-name="K" unicode="K" horiz-adv-x="563" 
d="M207 297v-297h-137v667h137v-290l189 290h159l-216 -321l216 -346h-161z" />
    <glyph glyph-name="L" unicode="L" horiz-adv-x="451" 
d="M207 113h223v-113h-360v667h137v-554z" />
    <glyph glyph-name="M" unicode="M" horiz-adv-x="848" 
d="M207 416v-416h-137v667h155l199 -405l200 405h155v-667h-137v416l-218 -436z" />
    <glyph glyph-name="N" unicode="N" horiz-adv-x="690" 
d="M207 422v-422h-137v667h135l279 -416v416h137v-667h-134z" />
    <glyph glyph-name="O" unicode="O" horiz-adv-x="764" 
d="M387 680c103 0 197 -44 262 -122c52 -63 77 -136 77 -228c0 -191 -152 -343 -341 -343c-195 0 -348 151 -348 343c0 198 152 350 350 350zM383 553c-118 0 -206 -94 -206 -221c0 -124 89 -219 205 -219c115 0 205 95 205 216c0 129 -86 224 -204 224z" />
    <glyph glyph-name="P" unicode="P" horiz-adv-x="551" 
d="M207 229v-229h-137v667h213c159 0 247 -77 247 -215c0 -137 -91 -223 -238 -223h-85zM207 342h59c80 0 126 38 126 105c0 66 -47 107 -123 107h-62v-212z" />
    <glyph glyph-name="Q" unicode="Q" horiz-adv-x="765" 
d="M713 44l-97 -82l-60 72c-55 -32 -110 -47 -175 -47c-190 0 -343 153 -343 343c0 198 151 350 348 350c194 0 341 -147 341 -341c0 -86 -26 -163 -77 -227zM511 271l48 -55c20 38 29 78 29 121c0 122 -89 216 -205 216c-118 0 -206 -94 -206 -220c0 -123 88 -219 201 -219
c34 0 58 6 82 22l-45 53z" />
    <glyph glyph-name="R" unicode="R" horiz-adv-x="584" 
d="M207 265v-265h-137v667h206c165 0 254 -73 254 -210c0 -105 -55 -175 -158 -201l184 -256h-166zM207 345h62c78 0 122 38 122 105c0 64 -42 104 -110 104h-74v-209z" />
    <glyph glyph-name="S" unicode="S" horiz-adv-x="521" 
d="M30 195h133v-9c0 -45 39 -78 91 -78c50 0 88 31 88 71c0 21 -10 40 -27 53s-28 18 -81 37c-146 52 -198 107 -198 209c0 121 89 202 220 202c130 0 214 -76 225 -204h-138c-5 56 -33 83 -87 83c-49 0 -82 -28 -82 -70c0 -27 14 -48 41 -63c18 -10 29 -15 78 -33
c73 -27 110 -46 139 -74c35 -33 53 -78 53 -129c0 -122 -92 -203 -230 -203c-140 0 -226 80 -225 208z" />
    <glyph glyph-name="T" unicode="T" horiz-adv-x="461" 
d="M299 555v-555h-137v555h-159v112h454v-112h-158z" />
    <glyph glyph-name="U" unicode="U" horiz-adv-x="639" 
d="M196 667v-391c0 -62 8 -96 30 -122c20 -25 56 -41 93 -41c39 0 77 18 97 46c20 27 26 56 26 118v390h138v-386c0 -98 -21 -166 -66 -216s-115 -78 -193 -78c-81 0 -155 30 -202 83c-43 48 -60 108 -60 211v386h137z" />
    <glyph glyph-name="V" unicode="V" horiz-adv-x="562" 
d="M278 220l141 447h141l-210 -667h-146l-202 667h141z" />
    <glyph glyph-name="W" unicode="W" horiz-adv-x="857" 
d="M602 239l111 428h143l-186 -667h-138l-105 437l-105 -437h-138l-182 667h145l107 -421l108 421h136z" />
    <glyph glyph-name="X" unicode="X" horiz-adv-x="581" 
d="M292 232l-130 -232h-158l210 352l-187 315h158l107 -191l110 191h156l-188 -315l207 -352h-156z" />
    <glyph glyph-name="Y" unicode="Y" horiz-adv-x="557" 
d="M349 294v-294h-137v294l-223 373h163l129 -231l127 231h160z" />
    <glyph glyph-name="Z" unicode="Z" horiz-adv-x="551" 
d="M228 112h281v-112h-496l312 555h-277v112h491z" />
    <glyph glyph-name="AE" unicode="&#xc6;" horiz-adv-x="850" 
d="M577 279v-167h228v-112h-365v134h-229l-71 -134h-146l362 667h449v-112h-228v-164h228v-112h-228zM440 242v321l-172 -321h172z" />
    <glyph glyph-name="OE" unicode="&#x152;" horiz-adv-x="1002" 
d="M728 279v-167h228v-112h-362v79c-26 -31 -42 -44 -75 -60c-45 -21 -93 -32 -144 -32c-191 0 -336 150 -336 348s145 345 339 345c89 0 155 -27 216 -88v75h362v-112h-228v-164h228v-112h-228zM392 553c-123 0 -214 -94 -214 -221c0 -125 89 -218 208 -218s212 96 212 220
c0 127 -86 219 -206 219z" />
    <glyph glyph-name="Oslash" unicode="&#xd8;" horiz-adv-x="762" 
d="M149 75l-72 -68l-33 36l70 68c-57 72 -78 131 -78 216c0 203 146 353 342 353c89 0 171 -31 233 -89l72 70l34 -37l-70 -68c56 -80 77 -141 77 -223c0 -195 -153 -346 -351 -346c-86 0 -160 29 -224 88zM547 462l-303 -297c40 -35 81 -51 132 -51c119 0 209 95 209 220
c0 51 -11 87 -38 128zM212 204l301 296c-39 36 -84 54 -131 54c-118 0 -207 -95 -207 -221c0 -52 12 -93 37 -129z" />
    <glyph glyph-name="Ccedilla" unicode="&#xc7;" horiz-adv-x="635" 
d="M531 182l83 -94c-77 -72 -149 -101 -248 -101c-103 0 -187 37 -247 109c-52 63 -82 149 -82 236c0 203 138 348 331 348c103 0 173 -29 252 -106l-89 -90c-54 49 -100 69 -156 69c-117 0 -199 -90 -199 -218s86 -221 206 -221c61 0 108 21 149 68zM280 -211l-61 46
c57 27 88 60 98 106l121 -35c-31 -52 -85 -92 -158 -117z" />
    <glyph glyph-name="Eth" unicode="&#xd0;" horiz-adv-x="641" 
d="M70 391v276h189c108 0 181 -22 240 -74c68 -60 105 -148 105 -252c0 -107 -38 -203 -106 -264c-55 -50 -135 -77 -231 -77h-197v284h-65v107h65zM207 391h118v-107h-118v-171h26c73 0 118 13 157 46c48 41 75 104 75 178c0 133 -82 219 -208 219h-50v-165z" />
    <glyph glyph-name="Lslash" unicode="&#x141;" horiz-adv-x="451" 
d="M70 357v310h137v-244l94 67v-119l-94 -64v-194h223v-113h-360v240l-58 -42v118z" />
    <glyph glyph-name="Thorn" unicode="&#xde;" horiz-adv-x="555" 
d="M205 157v-157h-137v667h137v-73h76c158 0 247 -77 247 -214s-92 -223 -238 -223h-85zM205 270h59c80 0 126 38 126 105c0 65 -47 106 -123 106h-62v-211z" />
    <glyph glyph-name="a" unicode="a" horiz-adv-x="607" 
d="M418 404v59h127v-463h-127v64c-43 -55 -93 -80 -161 -80c-130 0 -223 101 -223 242c0 146 98 253 233 253c63 0 106 -22 151 -75zM293 372c-72 0 -123 -59 -123 -144c0 -81 53 -142 122 -142c71 0 128 66 128 146c0 82 -52 140 -127 140z" />
    <glyph glyph-name="b" unicode="b" horiz-adv-x="606" 
d="M190 60v-60h-127v667h127v-260c44 51 87 72 150 72c136 0 233 -104 233 -250c0 -145 -92 -245 -227 -245c-70 0 -115 22 -156 76zM315 372c-71 0 -127 -64 -127 -144c0 -83 51 -141 124 -141c74 0 126 58 126 141c0 82 -53 144 -123 144z" />
    <glyph glyph-name="c" unicode="c" horiz-adv-x="468" 
d="M379 136l77 -83c-53 -48 -108 -69 -178 -69c-141 0 -245 104 -245 245c0 146 102 250 246 250c69 0 126 -24 185 -77l-85 -77c-28 28 -58 41 -95 41c-70 0 -122 -57 -122 -133c0 -79 53 -136 127 -136c33 0 57 10 90 39z" />
    <glyph glyph-name="d" unicode="d" horiz-adv-x="607" 
d="M418 412v255h127v-667h-127v61c-40 -55 -84 -77 -155 -77c-137 0 -229 98 -229 243c0 81 28 148 80 194c43 37 97 58 151 58c63 0 108 -20 153 -67zM295 372c-73 0 -126 -61 -126 -146c0 -80 53 -140 125 -140c70 0 124 61 124 141c0 84 -52 145 -123 145z" />
    <glyph glyph-name="e" unicode="e" horiz-adv-x="556" 
d="M527 201h-362c11 -64 58 -104 121 -104c47 0 87 23 107 60l117 -32c-46 -90 -127 -141 -225 -141c-147 0 -252 104 -252 248c0 145 101 247 244 247c148 0 251 -104 251 -253c0 -3 0 -16 -1 -25zM165 274h232c-11 61 -55 98 -118 98c-61 0 -102 -35 -114 -98z" />
    <glyph glyph-name="f" unicode="f" horiz-adv-x="286" 
d="M199 356v-356h-127v356h-51v107h51v26c0 117 57 178 169 178h19v-117c-45 -6 -61 -22 -61 -61v-26h61v-107h-61z" />
    <glyph glyph-name="g" unicode="g" horiz-adv-x="589" 
d="M401 406v57h125v-429c0 -95 -18 -150 -62 -193c-45 -45 -113 -70 -192 -70c-90 0 -164 30 -227 92l79 80c41 -44 85 -64 143 -64c85 0 134 50 134 137v47c-42 -53 -96 -79 -163 -79c-127 0 -219 103 -219 244c0 150 93 251 232 251c65 0 110 -22 150 -73zM278 366
c-73 0 -124 -55 -124 -132c0 -80 52 -137 125 -137c38 0 77 18 99 46c13 18 21 46 21 79c0 53 -12 87 -38 111c-21 21 -53 33 -83 33z" />
    <glyph glyph-name="h" unicode="h" horiz-adv-x="529" 
d="M190 667v-254c39 46 77 66 127 66c40 0 84 -17 111 -43c30 -28 41 -64 41 -131v-305h-127v287c0 52 -27 85 -69 85c-22 0 -42 -8 -57 -23c-20 -19 -26 -37 -26 -73v-276h-127v667h127z" />
    <glyph glyph-name="i" unicode="i" horiz-adv-x="253" 
d="M190 463v-463h-127v463h127zM127 666c41 0 70 -30 70 -72c0 -39 -30 -69 -70 -69c-41 0 -71 30 -71 70c0 41 30 71 71 71z" />
    <glyph glyph-name="j" unicode="j" horiz-adv-x="253" 
d="M190 463v-478c0 -70 -14 -117 -44 -148c-31 -33 -77 -50 -136 -50c-8 0 -20 0 -34 1v116h19c43 0 68 29 68 81v478h127zM127 666c41 0 70 -30 70 -72c0 -39 -30 -69 -70 -69c-41 0 -71 30 -71 70c0 41 30 71 71 71z" />
    <glyph glyph-name="k" unicode="k" horiz-adv-x="473" 
d="M190 192v-192h-127v667h127v-382l129 178h147l-157 -222l157 -241h-147z" />
    <glyph glyph-name="l" unicode="l" horiz-adv-x="253" 
d="M190 0h-127v667h127v-667z" />
    <glyph glyph-name="m" unicode="m" horiz-adv-x="792" 
d="M63 463h127v-58c29 51 68 74 127 74c60 0 104 -27 126 -77c31 53 74 77 140 77c47 0 86 -15 112 -43c28 -31 37 -62 37 -133v-303h-127v279c0 63 -23 93 -71 93c-47 0 -74 -34 -74 -93v-279h-127v275c0 64 -24 97 -70 97c-48 0 -73 -33 -73 -97v-275h-127v463z" />
    <glyph glyph-name="n" unicode="n" horiz-adv-x="531" 
d="M63 463h127v-57c34 53 68 73 126 73c44 0 86 -16 114 -43c30 -30 41 -67 41 -143v-293h-127v287c0 26 -3 41 -11 54c-12 19 -36 31 -61 31c-49 0 -82 -37 -82 -91v-281h-127v463z" />
    <glyph glyph-name="o" unicode="o" horiz-adv-x="568" 
d="M286 479c146 0 251 -106 251 -252c0 -136 -111 -243 -253 -243c-146 0 -251 103 -251 247c0 147 103 248 253 248zM286 365c-75 0 -125 -53 -125 -134c0 -80 50 -134 124 -134c73 0 124 55 124 132c0 84 -47 136 -123 136z" />
    <glyph glyph-name="p" unicode="p" horiz-adv-x="609" 
d="M63 463h127v-57c38 51 83 73 152 73c49 0 90 -12 129 -38c70 -48 105 -118 105 -211c0 -148 -92 -246 -231 -246c-67 0 -116 21 -155 66v-257h-127v670zM317 372c-75 0 -127 -60 -127 -146c0 -84 49 -140 123 -140s127 59 127 141c0 85 -51 145 -123 145z" />
    <glyph glyph-name="q" unicode="q" horiz-adv-x="607" 
d="M417 463h127v-670h-127v257c-41 -46 -89 -66 -157 -66c-135 0 -227 99 -227 244c0 148 97 251 236 251c66 0 109 -20 148 -69v53zM294 372c-73 0 -125 -60 -125 -143c0 -82 52 -143 123 -143c72 0 126 61 126 142c0 84 -52 144 -124 144z" />
    <glyph glyph-name="r" unicode="r" horiz-adv-x="333" 
d="M63 463h127v-68c12 34 22 48 41 62s46 22 74 22c3 0 8 0 15 -1v-129c-10 1 -20 1 -26 1c-35 0 -67 -15 -85 -42c-15 -21 -19 -41 -19 -84v-224h-127v463z" />
    <glyph glyph-name="s" unicode="s" horiz-adv-x="419" 
d="M381 329h-120v8c0 28 -25 48 -59 48c-30 0 -51 -17 -51 -41s16 -39 54 -50c71 -21 109 -37 132 -54c32 -24 51 -63 51 -106c0 -90 -72 -150 -180 -150c-110 0 -177 56 -182 152h122c6 -40 24 -58 61 -58c30 0 51 18 51 44c0 28 -18 41 -86 62c-100 30 -145 75 -145 148
c0 88 71 147 179 147c106 0 170 -56 173 -150z" />
    <glyph glyph-name="t" unicode="t" horiz-adv-x="283" 
d="M196 358v-222c0 -21 10 -30 36 -30h22v-106h-101c-60 0 -84 26 -84 88v270h-53v107h53v124h127v-124h58v-107h-58z" />
    <glyph glyph-name="u" unicode="u" horiz-adv-x="514" 
d="M333 463h127v-293c0 -68 -14 -106 -52 -138c-37 -31 -89 -48 -150 -48c-64 0 -119 18 -155 51c-33 30 -49 74 -49 135v293h127v-285c0 -52 31 -87 77 -87c47 0 75 30 75 79v293z" />
    <glyph glyph-name="v" unicode="v" horiz-adv-x="463" 
d="M335 463h130l-169 -463h-131l-167 463h132l102 -276z" />
    <glyph glyph-name="w" unicode="w" horiz-adv-x="728" 
d="M600 463h129l-151 -463h-132l-81 284l-83 -284h-135l-149 463h129l93 -282l81 282h122l83 -282z" />
    <glyph glyph-name="x" unicode="x" horiz-adv-x="480" 
d="M244 126l-85 -126h-150l161 230l-171 233h160l85 -123l82 123h155l-165 -233l162 -230h-154z" />
    <glyph glyph-name="y" unicode="y" horiz-adv-x="469" 
d="M227 188l108 275h135l-261 -674h-136l87 222l-162 452h135z" />
    <glyph glyph-name="z" unicode="z" horiz-adv-x="421" 
d="M215 107h179v-107h-379l195 356h-177v107h375z" />
    <glyph glyph-name="ae" unicode="&#xe6;" horiz-adv-x="945" 
d="M785 158l115 -35c-48 -91 -120 -139 -210 -139c-64 0 -103 20 -140 70v-54h-122v57c-41 -51 -91 -73 -161 -73c-140 0 -234 97 -234 243c0 145 97 252 229 252c67 0 123 -23 166 -69v53h122v-53c39 50 77 69 139 69c129 0 228 -108 228 -249c0 -10 0 -17 -1 -30h-366
c13 -64 61 -103 127 -103c46 0 77 18 108 61zM550 273h236c-13 65 -52 99 -115 99s-101 -31 -121 -99zM298 372c-75 0 -130 -60 -130 -141c0 -80 58 -144 132 -144c72 0 126 60 126 139c0 86 -53 146 -128 146z" />
    <glyph glyph-name="oe" unicode="&#x153;" horiz-adv-x="907" 
d="M773 156l104 -35c-46 -88 -125 -137 -222 -137c-46 0 -94 13 -133 35c-23 13 -36 25 -57 52c-21 -28 -32 -37 -66 -56c-39 -21 -76 -31 -119 -31c-145 0 -247 103 -247 248s102 247 248 247c81 0 142 -28 184 -83c45 55 108 83 185 83c100 0 183 -53 219 -138
c18 -43 23 -76 24 -142h-359c3 -31 10 -46 27 -64c24 -24 57 -38 93 -38c51 0 91 20 119 59zM529 272h240c-12 64 -54 100 -120 100c-63 0 -105 -35 -120 -100zM285 366c-71 0 -124 -56 -124 -132c0 -78 54 -137 125 -137c69 0 122 56 122 129c0 80 -52 140 -123 140z" />
    <glyph glyph-name="oslash" unicode="&#xf8;" horiz-adv-x="569" 
d="M119 40l-53 -51l-32 33l52 51c-37 46 -53 94 -53 158c0 144 104 248 248 248c65 0 116 -17 168 -55l55 53l30 -33l-53 -52c39 -53 56 -102 56 -163c0 -139 -109 -245 -252 -245c-63 0 -117 18 -166 56zM392 308l-186 -185c25 -18 51 -26 80 -26c74 0 126 55 126 134
c0 31 -5 52 -20 77zM175 158l187 183c-25 17 -47 24 -77 24c-77 0 -128 -54 -128 -136c0 -28 5 -46 18 -71z" />
    <glyph glyph-name="germandbls" unicode="&#xdf;" horiz-adv-x="532" 
d="M71 356h-45v107h45v51c0 97 76 162 190 162c117 0 196 -64 196 -158c0 -61 -28 -103 -84 -128c80 -25 126 -91 126 -184c0 -58 -17 -114 -47 -154s-76 -61 -135 -61c-33 0 -53 4 -84 18l22 105c15 -5 22 -6 33 -6c53 0 87 40 87 102c0 38 -16 70 -43 88
c-17 11 -33 15 -68 18v116c23 2 34 5 44 13c15 11 25 32 25 53c0 38 -29 67 -67 67c-24 0 -45 -11 -57 -28c-9 -14 -11 -26 -11 -60v-477h-127v356z" />
    <glyph glyph-name="dotlessi" unicode="&#x131;" horiz-adv-x="253" 
d="M190 463v-463h-127v463h127z" />
    <glyph glyph-name="fi" unicode="&#xfb01;" horiz-adv-x="533" 
d="M199 356v-356h-127v356h-51v107h51v26c0 117 57 178 169 178h19v-117c-45 -6 -61 -22 -61 -61v-26h61v-107h-61zM470 463v-463h-127v463h127zM407 666c41 0 70 -30 70 -72c0 -39 -30 -69 -70 -69c-41 0 -71 30 -71 70c0 41 30 71 71 71z" />
    <glyph glyph-name="fl" unicode="&#xfb02;" horiz-adv-x="533" 
d="M199 356v-356h-127v356h-51v107h51v26c0 117 57 178 169 178h19v-117c-45 -6 -61 -22 -61 -61v-26h61v-107h-61zM470 0h-127v667h127v-667z" />
    <glyph glyph-name="ccedilla" unicode="&#xe7;" horiz-adv-x="468" 
d="M379 136l77 -83c-53 -48 -108 -69 -178 -69c-141 0 -245 104 -245 245c0 146 102 250 246 250c69 0 126 -24 185 -77l-85 -77c-29 28 -59 41 -96 41c-70 0 -122 -57 -122 -133c0 -78 54 -136 127 -136c34 0 58 10 91 39zM208 -207l-51 45c42 21 71 52 95 104l88 -37
c-32 -50 -71 -83 -132 -112z" />
    <glyph glyph-name="lslash" unicode="&#x142;" horiz-adv-x="264" 
d="M68 364v303h127v-235l56 40v-107l-56 -38v-327h-127v259l-55 -40v107z" />
    <glyph glyph-name="eth" unicode="&#xf0;" horiz-adv-x="569" 
d="M174 577l76 41c-18 16 -78 48 -103 55l25 40c37 -7 104 -36 142 -61l104 56l29 -50l-77 -40c105 -83 167 -220 167 -366c0 -162 -101 -268 -253 -268c-147 0 -251 103 -251 248c0 143 104 246 250 246c32 0 55 -4 92 -17c-17 47 -38 78 -77 118l-97 -53zM285 364
c-74 0 -123 -53 -123 -132c0 -81 49 -135 122 -135c75 0 123 53 123 135c0 80 -48 132 -122 132z" />
    <glyph glyph-name="thorn" unicode="&#xfe;" horiz-adv-x="608" 
d="M62 667h127v-261c38 51 83 73 152 73c49 0 90 -12 129 -38c70 -48 105 -117 105 -211c0 -148 -92 -246 -231 -246c-67 0 -116 21 -155 66v-257h-127v874zM316 372c-75 0 -127 -60 -127 -146c0 -84 49 -140 123 -140s127 59 127 141c0 85 -51 145 -123 145z" />
    <glyph glyph-name="one" unicode="1" 
d="M235 497l-121 -65v119l250 130v-681h-129v497z" />
    <glyph glyph-name="two" unicode="2" 
d="M244 113h189v-113h-405l233 356c51 78 61 99 61 131c0 43 -33 74 -79 74c-36 0 -64 -18 -75 -47c-7 -18 -9 -30 -10 -64h-118c-1 141 79 227 211 227c117 0 200 -74 200 -177c0 -61 -23 -117 -82 -204z" />
    <glyph glyph-name="three" unicode="3" 
d="M250 553h-192v110h406l-185 -249c108 -9 178 -88 178 -201c0 -130 -94 -226 -222 -226c-74 0 -139 32 -176 88c-20 30 -28 56 -34 106l115 4c8 -52 43 -83 92 -83c57 0 102 44 102 102c0 59 -43 102 -103 102c-23 0 -42 -5 -61 -17l-72 61z" />
    <glyph glyph-name="four" unicode="4" 
d="M280 137h-245v107l234 425h134v-422h61v-110h-61v-137h-123v137zM280 247v248l-140 -248h140z" />
    <glyph glyph-name="five" unicode="5" 
d="M187 547v-143c31 13 54 18 83 18c110 0 193 -90 193 -209c0 -132 -91 -226 -219 -226c-60 0 -114 21 -154 60c-24 25 -36 45 -55 92l112 42c19 -50 48 -73 93 -73c56 0 98 44 98 102s-43 103 -99 103c-35 0 -60 -13 -85 -45h-84v395h340v-116h-223z" />
    <glyph glyph-name="six" unicode="6" 
d="M418 663l-171 -263c16 5 24 6 35 6c103 0 185 -88 185 -197c0 -123 -99 -222 -222 -222c-120 0 -212 92 -212 214c0 61 20 116 73 200l166 262h146zM252 300c-55 0 -98 -43 -98 -97c0 -55 41 -96 95 -96s97 43 97 96c0 55 -41 97 -94 97z" />
    <glyph glyph-name="seven" unicode="7" 
d="M285 547h-215v116h394l-262 -663h-133z" />
    <glyph glyph-name="eight" unicode="8" 
d="M370 349c64 -28 96 -80 96 -156c0 -121 -90 -206 -218 -206c-127 0 -214 81 -214 199c0 81 33 135 99 163c-51 25 -79 74 -79 138c0 111 83 190 200 190c114 0 196 -78 196 -186c0 -36 -9 -68 -28 -97c-15 -22 -25 -31 -52 -45zM253 567c-48 0 -83 -34 -83 -80
c0 -47 36 -84 82 -84c45 0 85 38 85 82s-39 82 -84 82zM251 289c-53 0 -94 -40 -94 -93s40 -93 93 -93c51 0 92 41 92 93c0 51 -42 93 -91 93z" />
    <glyph glyph-name="nine" unicode="9" 
d="M88 0l168 262c-14 -3 -21 -4 -30 -4c-110 0 -193 86 -193 199c0 125 96 220 221 220c123 0 214 -92 214 -216c0 -61 -21 -119 -72 -200l-164 -261h-144zM253 558c-54 0 -97 -42 -97 -95c0 -54 41 -96 94 -96c54 0 96 41 96 95c0 53 -42 96 -93 96z" />
    <glyph glyph-name="zero" unicode="0" 
d="M458 461v-259c0 -77 -16 -125 -55 -162c-37 -35 -88 -53 -152 -53c-67 0 -124 20 -160 56c-37 37 -50 85 -50 189v213c0 86 13 135 45 170c36 40 94 62 161 62c61 0 113 -18 151 -52c43 -38 60 -84 60 -164zM170 445v-227c0 -53 2 -65 14 -81c13 -20 40 -32 67 -32
c28 0 54 13 67 34c10 17 14 37 14 80v232c0 45 -5 64 -20 81c-14 16 -36 25 -61 25c-30 0 -55 -12 -67 -33c-10 -17 -14 -37 -14 -79z" />
    <glyph glyph-name="sterling" unicode="&#xa3;" 
d="M256 371h136v-61h-104c18 -32 23 -46 23 -67c0 -30 -12 -53 -48 -98l7 -2l23 -9c11 -4 21 -9 29 -13c41 -21 55 -26 77 -26s36 7 58 31l13 -85c-31 -34 -63 -50 -102 -50c-32 0 -53 8 -125 48c-29 16 -44 21 -61 21c-31 0 -51 -23 -52 -60h-99c1 90 59 159 132 160
c5 7 10 15 15 23c13 22 17 32 17 48c0 31 -12 54 -41 79h-115v61h66c-33 42 -43 69 -43 114c0 109 85 189 202 189c67 0 131 -30 169 -78c21 -27 29 -54 31 -106h-115v7c-3 46 -36 79 -80 79s-80 -36 -80 -81c0 -39 13 -63 67 -124z" />
    <glyph glyph-name="dollar" unicode="$" 
d="M269 557v-170c55 -19 80 -30 111 -49c52 -31 82 -85 82 -146c0 -68 -38 -133 -96 -165c-27 -15 -51 -21 -97 -27v-88h-47v88c-107 6 -185 84 -183 186h114c-2 -42 23 -72 69 -81v175c-134 46 -184 99 -184 195c0 105 74 180 184 188v71h47v-71c116 -17 178 -77 182 -175
h-113c-1 37 -26 62 -69 69zM222 403v154c-44 -7 -70 -34 -70 -75c0 -23 11 -45 28 -58c10 -7 18 -11 42 -21zM269 262v-157c46 6 73 36 73 80c0 38 -20 60 -73 77z" />
    <glyph glyph-name="cent" unicode="&#xa2;" 
d="M310 459v-272c29 2 49 12 73 33l75 -77c-41 -39 -87 -59 -148 -65v-97h-47v97c-52 8 -80 18 -115 41c-68 46 -99 110 -99 201c0 93 38 170 103 212c32 20 59 29 111 36v73h47v-73c59 -5 107 -28 155 -74l-82 -74c-23 24 -42 34 -73 39zM263 187v272
c-63 -18 -93 -62 -93 -135s31 -119 93 -137z" />
    <glyph glyph-name="florin" unicode="&#x192;" 
d="M206 402h-51l11 61h51l16 90c21 117 89 178 201 178h18l-21 -117c-44 -5 -63 -21 -71 -61l-16 -90h60l-10 -61h-60l-61 -346c-22 -129 -95 -190 -222 -189l21 119c41 3 65 26 73 70z" />
    <glyph glyph-name="yen" unicode="&#xa5;" 
d="M115 443l-106 220h136l108 -253l106 253h131l-104 -220h84v-66h-115l-39 -85v-7h134v-66h-134v-219h-129v219h-138v66h138v7l-40 85h-118v66h86z" />
    <glyph glyph-name="onesuperior" unicode="&#xb9;" horiz-adv-x="330" 
d="M152 556l-76 -38v78l164 80v-411h-88v291z" />
    <glyph glyph-name="twosuperior" unicode="&#xb2;" horiz-adv-x="330" 
d="M169 339h115v-74h-265l150 215c31 45 38 58 38 75c0 24 -19 41 -46 41c-35 0 -49 -18 -50 -66h-81v9c0 80 53 133 136 133c75 0 129 -45 129 -109c0 -37 -14 -71 -52 -122z" />
    <glyph glyph-name="threesuperior" unicode="&#xb3;" horiz-adv-x="330" 
d="M158 592h-117v72h265l-116 -148c65 -6 109 -55 109 -121c0 -79 -60 -137 -143 -137c-79 0 -127 43 -136 121l79 3c5 -31 25 -49 55 -49c34 0 61 25 61 57c0 33 -25 57 -61 57c-16 0 -26 -3 -39 -11l-50 39z" />
    <glyph glyph-name="period" unicode="." horiz-adv-x="261" 
d="M132 135c42 0 73 -31 73 -75c0 -42 -32 -73 -74 -73c-43 0 -74 31 -74 74s31 74 75 74z" />
    <glyph glyph-name="colon" unicode=":" horiz-adv-x="261" 
d="M132 135c42 0 73 -31 73 -75c0 -42 -32 -73 -74 -73c-43 0 -74 31 -74 74s31 74 75 74zM132 465c42 0 73 -31 73 -75c0 -42 -32 -73 -74 -73c-43 0 -74 31 -74 74s31 74 75 74z" />
    <glyph glyph-name="periodcentered" unicode="&#xb7;" horiz-adv-x="261" 
d="M132 321c42 0 73 -31 73 -75c0 -42 -32 -73 -74 -73c-43 0 -74 31 -74 74s31 74 75 74z" />
    <glyph glyph-name="middot" unicode="&#xb7;" horiz-adv-x="261" 
d="M132 321c42 0 73 -31 73 -75c0 -42 -32 -73 -74 -73c-43 0 -74 31 -74 74s31 74 75 74z" />
    <glyph glyph-name="ellipsis" unicode="&#x2026;" horiz-adv-x="782" 
d="M132 135c42 0 73 -31 73 -75c0 -42 -32 -73 -74 -73c-43 0 -74 31 -74 74s31 74 75 74zM393 135c42 0 73 -31 73 -75c0 -42 -32 -73 -74 -73c-43 0 -74 31 -74 74s31 74 75 74zM653 135c42 0 73 -31 73 -75c0 -42 -32 -73 -74 -73c-43 0 -74 31 -74 74s31 74 75 74z" />
    <glyph glyph-name="comma" unicode="," horiz-adv-x="261" 
d="M207 107l-89 -239l-86 20l58 248z" />
    <glyph glyph-name="semicolon" unicode=";" horiz-adv-x="261" 
d="M207 107l-89 -239l-86 20l58 248zM144 449c42 0 73 -31 73 -75c0 -42 -32 -73 -74 -73c-43 0 -74 31 -74 74s31 74 75 74z" />
    <glyph glyph-name="quoteleft" unicode="&#x2018;" horiz-adv-x="236" 
d="M34 472l79 208l86 -22l-56 -215z" />
    <glyph glyph-name="quotedblright" unicode="&#x201d;" horiz-adv-x="434" 
d="M211 649l-85 -230l-89 23l60 238zM400 649l-85 -230l-89 23l60 238z" />
    <glyph glyph-name="quotedblleft" unicode="&#x201c;" horiz-adv-x="434" 
d="M224 450l85 230l88 -23l-59 -238zM34 450l85 230l89 -23l-60 -238z" />
    <glyph glyph-name="quotedblbase" unicode="&#x201e;" horiz-adv-x="434" 
d="M211 105l-85 -230l-89 23l60 238zM400 105l-85 -230l-89 23l60 238z" />
    <glyph glyph-name="exclam" unicode="!" horiz-adv-x="287" 
d="M206 667v-459h-125v459h125zM145 135c42 0 73 -31 73 -75c0 -42 -32 -73 -74 -73c-43 0 -74 31 -74 74s31 74 75 74z" />
    <glyph glyph-name="exclamdown" unicode="&#xa1;" horiz-adv-x="287" 
d="M81 -203v459h125v-459h-125zM144 477c43 0 74 -31 74 -74s-31 -74 -75 -74c-42 0 -73 31 -73 75c0 42 32 73 74 73z" />
    <glyph glyph-name="question" unicode="?" horiz-adv-x="447" 
d="M264 217h-128c-1 16 -1 30 -1 36c0 80 12 101 91 163c41 31 54 51 54 81c0 38 -28 66 -68 66c-43 0 -68 -28 -68 -76h-119c2 120 73 191 190 191c114 0 194 -74 194 -180c0 -65 -26 -110 -89 -157c-51 -37 -57 -46 -57 -89v-12c1 -4 1 -12 1 -23zM202 135
c42 0 73 -31 73 -75c0 -42 -32 -73 -74 -73c-43 0 -74 31 -74 74s31 74 75 74z" />
    <glyph glyph-name="questiondown" unicode="&#xbf;" horiz-adv-x="447" 
d="M183 246h128c1 -16 1 -30 1 -36c0 -80 -12 -101 -91 -163c-41 -32 -54 -51 -54 -81c0 -39 28 -66 68 -66c43 0 68 28 68 76h119c-3 -120 -73 -190 -190 -190c-114 0 -194 74 -194 179c0 65 26 110 89 157c51 37 57 46 57 90v11c-1 4 -1 12 -1 23zM246 477
c43 0 74 -31 74 -74s-31 -74 -75 -74c-42 0 -73 31 -73 75c0 42 32 73 74 73z" />
    <glyph glyph-name="guillemotright" unicode="&#xbb;" horiz-adv-x="423" 
d="M304 246l-96 163h83l95 -163l-95 -169h-83zM139 246l-96 163h83l95 -163l-95 -169h-83z" />
    <glyph glyph-name="guillemotleft" unicode="&#xab;" horiz-adv-x="423" 
d="M119 238l96 -163h-83l-95 163l95 169h83zM284 238l96 -163h-83l-95 163l95 169h83z" />
    <glyph glyph-name="guilsinglright" unicode="&#x203a;" horiz-adv-x="258" 
d="M139 244l-96 163h83l95 -163l-95 -169h-83z" />
    <glyph glyph-name="guilsinglleft" unicode="&#x2039;" horiz-adv-x="258" 
d="M119 238l96 -163h-83l-95 163l95 169h83z" />
    <glyph glyph-name="slash" unicode="/" horiz-adv-x="393" 
d="M367 667l-332 -874h-88l332 874h88z" />
    <glyph glyph-name="hyphen" unicode="-" horiz-adv-x="222" 
d="M222 300v-112h-222v112h222z" />
    <glyph glyph-name="sfthyphen" unicode="&#xad;" horiz-adv-x="222" 
d="M222 300v-112h-222v112h222z" />
    <glyph glyph-name="endash" unicode="&#x2013;" 
d="M454 292v-107h-407v107h407z" />
    <glyph glyph-name="emdash" unicode="&#x2014;" horiz-adv-x="669" 
d="M669 292v-97h-669v97h669z" />
    <glyph glyph-name="parenleft" unicode="(" horiz-adv-x="327" 
d="M289 -155l-87 -74c-112 149 -165 296 -165 460c0 103 23 206 69 309c30 68 54 104 102 158l81 -76c-91 -120 -138 -255 -138 -396c0 -136 46 -263 138 -381z" />
    <glyph glyph-name="parenright" unicode=")" horiz-adv-x="327" 
d="M38 625l87 73c112 -148 165 -296 165 -460c0 -103 -23 -206 -69 -309c-31 -68 -54 -104 -102 -158l-81 76c91 119 138 255 138 396c0 136 -47 265 -138 382z" />
    <glyph glyph-name="bracketleft" unicode="[" horiz-adv-x="327" 
d="M66 667h214v-75h-107v-724h107v-75h-214v874z" />
    <glyph glyph-name="bracketright" unicode="]" horiz-adv-x="327" 
d="M261 667v-874h-214v75h107v724h-107v75h214z" />
    <glyph glyph-name="ampersand" unicode="&#x26;" horiz-adv-x="638" 
d="M510 141l112 -141h-147l-51 65c-71 -57 -129 -82 -191 -82c-113 0 -196 81 -196 192c0 84 35 133 145 204c-42 61 -55 92 -55 136c0 82 70 142 167 142c94 0 163 -59 163 -141c0 -34 -14 -72 -39 -103c-17 -20 -33 -34 -71 -59l92 -123c49 44 57 51 98 99l85 -75
c-52 -58 -61 -66 -112 -114zM282 439c44 27 59 47 59 75c0 26 -19 46 -45 46c-27 0 -49 -21 -49 -47c0 -23 8 -40 35 -74zM350 155l-104 134c-62 -40 -83 -67 -83 -105c0 -47 39 -86 85 -86c35 0 67 18 102 57z" />
    <glyph glyph-name="section" unicode="&#xa7;" 
d="M437 517h-110c-4 46 -32 73 -75 73c-40 0 -71 -28 -71 -64c0 -18 9 -36 24 -49c18 -14 29 -20 88 -42c119 -46 165 -97 165 -182c0 -71 -37 -126 -107 -159c55 -32 80 -72 80 -128c0 -98 -78 -167 -187 -167c-71 0 -129 28 -163 78c-20 30 -27 55 -29 101h111
c1 -54 34 -89 84 -89c43 0 75 32 75 74c0 24 -10 43 -31 57c-18 13 -27 17 -84 35c-117 38 -165 92 -165 186c0 81 41 139 115 160c-56 26 -85 70 -85 129c0 89 72 151 176 151c72 0 135 -29 165 -75c15 -24 22 -48 24 -89zM250 340c-56 0 -101 -42 -101 -95
c0 -55 43 -96 100 -96s100 41 100 96c0 51 -45 95 -99 95z" />
    <glyph glyph-name="dagger" unicode="&#x2020;" 
d="M197 667h107v-170h147v-91h-147v-601h-107v601h-147v91h147v170z" />
    <glyph glyph-name="daggerdbl" unicode="&#x2021;" 
d="M197 667h107v-175h147v-91h-147v-322h147v-91h-147v-183h-107v183h-147v91h147v322h-147v91h147v175z" />
    <glyph glyph-name="asterisk" unicode="*" horiz-adv-x="414" 
d="M206 459l-56 -80l-61 43l57 79l-91 30l25 67l90 -27v96h71v-96l94 34l25 -67l-101 -37l67 -79l-55 -43z" />
    <glyph glyph-name="quotesingle" unicode="'" horiz-adv-x="218" 
d="M160 399h-103l-25 268h154z" />
    <glyph glyph-name="quotedbl" unicode="&#x22;" horiz-adv-x="412" 
d="M156 399h-99l-25 268h149zM355 399h-99l-25 268h149z" />
    <glyph glyph-name="at" unicode="@" horiz-adv-x="771" 
d="M654 186h49c-35 -71 -66 -108 -120 -140c-56 -34 -122 -52 -190 -52c-181 0 -331 153 -331 337c0 109 57 216 151 282c55 38 124 59 196 59c164 0 302 -127 302 -278c0 -79 -35 -154 -95 -204c-43 -35 -96 -57 -140 -57c-40 0 -64 19 -67 53c-50 -40 -76 -52 -114 -52
c-64 0 -108 50 -108 124c0 58 22 126 59 180c42 61 99 95 160 95c37 0 57 -10 88 -43l10 26h86l-104 -277c-7 -19 -12 -40 -12 -48c0 -12 10 -19 25 -19c16 0 38 8 58 21c62 39 104 118 104 196c0 129 -116 235 -256 235c-162 0 -293 -133 -293 -296
c0 -157 128 -286 284 -286c71 0 141 25 193 70c22 18 37 36 65 74zM415 286l50 128c3 7 4 16 4 25c0 33 -16 52 -43 52c-17 0 -39 -12 -57 -31c-54 -58 -102 -170 -102 -240c0 -29 15 -45 41 -45c36 0 82 48 107 111z" />
    <glyph glyph-name="numbersign" unicode="#" 
d="M447 294v-67h-96l-29 -200h-69l29 200h-88l-29 -200h-68l29 200h-96v67h106l14 88h-95v68h104l28 187h66l-26 -187h88l27 187h68l-27 -187h87v-68h-97l-12 -88h86zM306 383h-90l-12 -90h88z" />
    <glyph glyph-name="degree" unicode="&#xb0;" 
d="M251 670c85 0 153 -69 153 -156c0 -83 -69 -152 -153 -152c-86 0 -155 69 -155 154s69 154 155 154zM249 616c-53 0 -97 -46 -97 -100c0 -55 44 -100 98 -100c53 0 98 45 98 98c0 57 -44 102 -99 102z" />
    <glyph glyph-name="plus" unicode="+" 
d="M13 388h203v198h68v-198h204v-66h-204v-198h-68v198h-203v66z" />
    <glyph glyph-name="minus" unicode="&#x2212;" 
d="M12 388h475v-66h-475v66z" />
    <glyph glyph-name="multiply" unicode="&#xd7;" 
d="M99 553l151 -151l151 152l49 -48l-153 -152l152 -150l-47 -47l-151 152l-152 -153l-48 48l153 152l-151 150z" />
    <glyph glyph-name="divide" unicode="&#xf7;" 
d="M12 388h475v-66h-475v66zM250 583c29 0 52 -24 52 -52c0 -29 -24 -53 -52 -53c-29 0 -53 24 -53 52c0 30 23 53 53 53zM250 232c28 0 52 -24 52 -52c0 -29 -24 -53 -53 -53c-28 0 -52 24 -52 52c0 30 24 53 53 53z" />
    <glyph glyph-name="equal" unicode="=" 
d="M12 461h475v-64h-475v64zM12 313h475v-64h-475v64z" />
    <glyph glyph-name="trademark" unicode="&#x2122;" horiz-adv-x="852" 
d="M199 594v-327h-93v327h-98v73h290v-73h-99zM448 499v-232h-93v400h103l120 -234l121 234h103v-400h-93v232l-131 -249z" />
    <glyph glyph-name="paragraph" unicode="&#xb6;" 
d="M221 -105v414h-15c-105 1 -176 73 -176 178c0 66 33 126 85 155c29 16 71 25 119 25h200v-772h-66v729h-80v-729h-67z" />
    <glyph glyph-name="currency" unicode="&#xa4;" horiz-adv-x="709" 
d="M48 109l98 99c-26 40 -40 88 -40 133c0 44 11 79 43 134l-102 100l72 72l102 -102c58 31 87 40 134 40c46 0 72 -8 131 -39l102 100l71 -71l-99 -99c31 -50 43 -89 43 -137c0 -44 -10 -76 -40 -131l99 -99l-71 -72l-98 99c-45 -29 -87 -43 -133 -43c-45 0 -90 13 -143 43
l-98 -98zM357 469c-73 0 -130 -56 -130 -128c0 -70 58 -128 128 -128c71 0 128 57 128 128c0 70 -57 128 -126 128z" />
    <glyph glyph-name="quotesinglbase" unicode="&#x201a;" horiz-adv-x="243" 
d="M210 105l-83 -222l-89 23l58 230z" />
    <glyph glyph-name="quoteright" unicode="&#x2019;" horiz-adv-x="236" 
d="M203 651l-79 -208l-86 23l56 214z" />
    <glyph glyph-name="braceleft" unicode="{" 
d="M295 469v-106c0 -65 -14 -93 -57 -120c43 -26 57 -56 57 -120v-109c0 -71 15 -84 97 -84v-119c-24 -1 -26 -1 -58 -1c-95 0 -124 9 -151 46c-16 22 -24 54 -24 100v145c0 56 -15 81 -56 91v109c40 10 56 35 56 85v152c0 51 10 83 33 105c29 28 55 34 148 34
c26 0 33 0 52 -1v-126c-80 1 -97 -13 -97 -81z" />
    <glyph glyph-name="braceright" unicode="}" 
d="M205 18v107c0 64 13 92 57 119c-43 26 -57 57 -57 121v109c0 42 -5 59 -22 71c-10 7 -35 12 -64 12h-11v119c19 1 36 1 58 1c95 0 123 -9 151 -45c16 -22 24 -54 24 -101v-144c0 -57 15 -81 57 -91v-110c-40 -10 -57 -34 -57 -85v-152c0 -50 -10 -83 -33 -105
c-29 -28 -55 -34 -147 -34c-25 0 -32 0 -53 1v126c81 0 97 13 97 81z" />
    <glyph glyph-name="ordfeminine" unicode="&#xaa;" horiz-adv-x="394" 
d="M263 518v28h87v-279h-87v30c-24 -26 -57 -39 -96 -39c-82 0 -142 61 -142 145c0 88 63 152 148 152c37 0 66 -12 90 -37zM190 485c-43 0 -73 -33 -73 -81c0 -45 31 -79 72 -79s75 37 75 82c0 46 -31 78 -74 78z" />
    <glyph glyph-name="ordmasculine" unicode="&#xba;" horiz-adv-x="370" 
d="M186 556c92 0 159 -64 159 -151c0 -82 -71 -147 -161 -147c-92 0 -159 62 -159 149c0 88 66 149 161 149zM185 482c-44 0 -73 -30 -73 -75s29 -75 73 -75c42 0 72 30 72 74c0 47 -28 76 -72 76z" />
    <glyph glyph-name="plusminus" unicode="&#xb1;" 
d="M12 394h203v198h68v-198h204v-66h-204v-192h-68v192h-203v66zM12 95h475v-66h-475v66z" />
    <glyph glyph-name="onehalf" unicode="&#xbd;" horiz-adv-x="787" 
d="M152 556l-76 -38v78l164 80v-411h-88v291zM633 652l-440 -665l-39 26l439 664zM625 74h115v-74h-265l150 215c32 45 38 57 38 75c0 24 -19 40 -46 40c-35 0 -49 -17 -50 -65h-81v8c0 81 53 133 136 133c75 0 129 -45 129 -108c0 -37 -14 -71 -52 -122z" />
    <glyph glyph-name="onequarter" unicode="&#xbc;" horiz-adv-x="787" 
d="M152 556l-76 -38v78l164 80v-411h-88v291zM633 652l-440 -665l-39 26l439 664zM637 81h-153v67l149 250h89v-245h38v-72h-38v-81h-85v81zM642 150v147l-85 -147h85z" />
    <glyph glyph-name="threequarters" unicode="&#xbe;" horiz-adv-x="787" 
d="M158 592h-117v72h265l-116 -148c65 -6 109 -55 109 -121c0 -79 -60 -137 -143 -137c-79 0 -127 43 -136 121l79 3c5 -31 25 -49 55 -49c34 0 61 25 61 57c0 33 -25 57 -61 57c-16 0 -26 -3 -39 -11l-50 39zM633 652l-440 -665l-39 26l439 664zM637 81h-153v67l149 250h89
v-245h38v-72h-38v-81h-85v81zM642 150v147l-85 -147h85z" />
    <glyph glyph-name="fraction" unicode="&#x2044;" horiz-adv-x="127" 
d="M303 652l-440 -665l-40 26l439 664z" />
    <glyph glyph-name="percent" unicode="%" horiz-adv-x="679" 
d="M286 547v-106c0 -80 -43 -124 -122 -124c-39 0 -74 12 -95 33s-29 48 -29 106v86c0 50 8 79 28 100c21 22 56 35 94 35c35 0 66 -10 89 -30c26 -24 35 -49 35 -100zM119 542v-91c0 -32 1 -36 6 -46c7 -11 21 -18 39 -18c34 0 45 16 45 66v91c0 46 -12 62 -44 62
c-36 0 -46 -14 -46 -64zM638 220v-106c0 -80 -43 -124 -122 -124c-39 0 -74 12 -95 33c-22 21 -29 49 -29 106v86c0 50 8 79 28 100c21 22 56 35 94 35c35 0 66 -10 89 -30c26 -23 35 -49 35 -100zM471 215v-91c0 -31 1 -36 6 -46c7 -11 22 -18 39 -18c34 0 45 16 45 66v91
c0 46 -12 62 -44 62c-36 0 -46 -14 -46 -64zM579 654l-440 -666l-40 26l440 665z" />
    <glyph glyph-name="perthousand" unicode="&#x2030;" horiz-adv-x="1014" 
d="M286 547v-106c0 -80 -43 -124 -122 -124c-39 0 -74 12 -95 33s-29 48 -29 106v86c0 50 8 79 28 100c21 22 56 35 94 35c35 0 66 -10 89 -30c26 -24 35 -49 35 -100zM119 542v-91c0 -32 1 -36 6 -46c7 -11 21 -18 39 -18c34 0 45 16 45 66v91c0 46 -12 62 -44 62
c-36 0 -46 -14 -46 -64zM659 220v-106c0 -80 -43 -124 -122 -124c-39 0 -74 12 -95 33c-22 21 -29 49 -29 106v86c0 50 8 79 28 100c21 22 56 35 94 35c35 0 66 -10 89 -30c26 -23 35 -49 35 -100zM492 215v-91c0 -31 1 -36 6 -46c7 -11 22 -18 39 -18c34 0 45 16 45 66v91
c0 46 -12 62 -44 62c-36 0 -46 -14 -46 -64zM589 654l-440 -666l-39 26l439 665zM973 220v-106c0 -80 -43 -124 -122 -124c-39 0 -74 12 -95 33s-29 49 -29 106v86c0 51 8 79 28 100c21 22 56 35 94 35c35 0 66 -10 89 -30c26 -23 35 -49 35 -100zM806 215v-91
c0 -31 1 -36 6 -46c7 -11 22 -18 39 -18c34 0 45 16 45 66v91c0 46 -12 62 -44 62c-36 0 -46 -14 -46 -64z" />
    <glyph glyph-name="backslash" unicode="\" horiz-adv-x="393" 
d="M26 667h88l332 -874h-89z" />
    <glyph glyph-name="dieresis" unicode="&#xa8;" 
d="M144 673c38 0 66 -29 66 -68c0 -37 -30 -66 -67 -66c-38 0 -67 29 -67 67s29 67 68 67zM357 673c37 0 66 -29 66 -68c0 -37 -30 -66 -67 -66c-38 0 -67 29 -67 67s29 67 68 67z" />
    <glyph glyph-name="dotaccent" unicode="&#x2d9;" 
d="M250 673c38 0 66 -29 66 -68c0 -37 -30 -66 -67 -66c-38 0 -67 29 -67 67s29 67 68 67z" />
    <glyph glyph-name="ring" unicode="&#x2da;" 
d="M251 697c52 0 92 -40 92 -93c0 -49 -42 -89 -93 -89c-52 0 -93 40 -93 91s41 91 94 91zM250 651c-26 0 -46 -20 -46 -45s21 -45 46 -45s46 20 46 44c0 26 -20 46 -46 46z" />
    <glyph glyph-name="acute" unicode="&#xb4;" 
d="M274 672h128l-133 -139h-78z" />
    <glyph glyph-name="grave" unicode="`" 
d="M226 672l83 -139h-78l-133 139h128z" />
    <glyph glyph-name="circumflex" unicode="&#x2c6;" 
d="M251 607l-70 -74h-89l102 139h118l96 -139h-89z" />
    <glyph glyph-name="caron" unicode="&#x2c7;" 
d="M249 598l70 74h89l-102 -139h-118l-96 139h89z" />
    <glyph glyph-name="breve" unicode="&#x2d8;" 
d="M268 664h88c-5 -76 -44 -120 -106 -120s-101 44 -106 120h88c4 -17 5 -23 4 -36c0 -18 4 -28 14 -28s14 10 14 29c0 12 0 18 4 35z" />
    <glyph glyph-name="tilde" unicode="&#x2dc;" 
d="M339 658l82 -6c-18 -74 -53 -112 -104 -112c-21 0 -44 8 -89 29c-13 7 -17 8 -23 8c-14 0 -23 -11 -30 -36l-82 7c17 75 51 111 104 111c23 0 46 -8 91 -29c10 -5 16 -7 23 -7c14 0 24 12 28 35z" />
    <glyph glyph-name="hungarumlaut" unicode="&#x2dd;" 
d="M189 669h113l-115 -136h-68zM362 669h113l-114 -136h-69z" />
    <glyph glyph-name="cedilla" unicode="&#xb8;" 
d="M210 -207l-51 45c42 21 71 52 95 104l88 -37c-32 -50 -71 -83 -132 -112z" />
    <glyph glyph-name="ogonek" unicode="&#x2db;" 
d="M229 0h64l-23 -22c-15 -15 -24 -33 -24 -49c0 -21 16 -33 44 -33c11 0 18 1 31 5l8 -60c-23 -6 -35 -8 -57 -8c-61 0 -100 30 -100 76c0 32 20 65 57 91z" />
    <glyph glyph-name="macron" unicode="&#xaf;" 
d="M159 574v56h182v-56h-182z" />
    <glyph glyph-name="copyright" unicode="&#xa9;" horiz-adv-x="772" 
d="M391 680c186 0 340 -157 340 -347c0 -191 -155 -346 -345 -346s-346 155 -346 346c0 194 154 347 351 347zM390 620c-160 0 -285 -126 -285 -287c0 -157 126 -286 281 -286s280 128 280 286c0 157 -125 287 -276 287zM502 296h64c-8 -99 -78 -162 -179 -162
c-114 0 -190 81 -190 202c0 119 79 202 193 202c93 0 165 -60 172 -142h-64c-11 45 -51 71 -107 71c-68 0 -111 -51 -111 -132c0 -80 42 -130 110 -130c62 0 104 34 112 91z" />
    <glyph glyph-name="registered" unicode="&#xae;" horiz-adv-x="772" 
d="M391 680c186 0 340 -157 340 -347c0 -191 -155 -346 -345 -346c-191 0 -346 155 -346 346c0 194 154 347 351 347zM390 620c-160 0 -285 -126 -285 -287c0 -157 126 -286 281 -286c154 0 280 128 280 286c0 157 -125 287 -276 287zM239 529h163c92 0 141 -38 141 -108
c0 -44 -23 -77 -66 -95c46 -19 58 -43 60 -125c2 -32 5 -48 10 -59h-79c-5 11 -7 23 -10 76c-3 38 -10 57 -25 68c-12 10 -33 15 -57 15h-55v-159h-82v387zM321 478v-128h62c53 0 78 21 78 65c0 43 -23 63 -72 63h-68z" />
    <glyph glyph-name="space" unicode=" " horiz-adv-x="300" 
 />
    <glyph glyph-name="nbspace" unicode="&#xa0;" horiz-adv-x="300" 
 />
    <glyph glyph-name="bullet" unicode="&#x2022;" horiz-adv-x="667" 
d="M337 478c74 0 136 -63 136 -138c0 -77 -62 -139 -138 -139s-139 62 -139 138c0 78 62 139 141 139z" />
    <glyph glyph-name="less" unicode="&#x3c;" 
d="M466 619v-138l-287 -145l287 -145v-136l-433 224v116z" />
    <glyph glyph-name="greater" unicode="&#x3e;" 
d="M34 55v137l287 145l-287 145v137l433 -224v-116z" />
    <glyph glyph-name="logicalnot" unicode="&#xac;" 
d="M332 0v167h-299v121h433v-288h-134z" />
    <glyph glyph-name="asciicircum" unicode="^" 
d="M141 354h-123l155 316h154l155 -316h-123l-109 223z" />
    <glyph glyph-name="bar" unicode="|" 
d="M181 667h139v-834h-139v834z" />
    <glyph glyph-name="brokenbar" unicode="&#xa6;" 
d="M181 667h139v-349h-139v349zM181 153h139v-320h-139v320z" />
    <glyph glyph-name="underscore" unicode="_" 
d="M0 -59h500v-83h-500v83z" />
    <glyph glyph-name="asciitilde" unicode="~" horiz-adv-x="667" 
d="M161 557l-68 56c37 89 85 133 147 133c25 0 55 -9 113 -35c54 -24 62 -27 79 -27c30 0 51 18 76 64l68 -56c-40 -94 -83 -131 -156 -131c-27 0 -36 3 -111 37c-36 16 -58 23 -75 23c-28 0 -48 -18 -73 -64z" />
    <glyph glyph-name="mu" unicode="&#x3bc;" 
d="M34 -169v649h117v-255c0 -54 4 -74 22 -97c20 -26 46 -40 75 -40c62 0 100 55 100 142v250h117v-480h-117v72c-22 -56 -54 -82 -102 -82c-42 0 -70 18 -95 62v-221h-117z" />
  </font>
</defs>
</svg>
